<svg width="59" height="56" viewBox="0 0 59 56" fill="none" xmlns="http://www.w3.org/2000/svg">
<path d="M19.5 28C19.5 15.5039 20.6794 8.60752 22.5243 4.84514C23.4381 2.98159 24.503 1.91309 25.6487 1.30027C26.8021 0.683417 28.0894 0.5 29.5 0.5C30.9106 0.5 32.1979 0.683417 33.3513 1.30027C34.4971 1.91309 35.5619 2.98159 36.4757 4.84514C38.3206 8.60752 39.5 15.5039 39.5 28C39.5 40.4961 38.3206 47.3925 36.4757 51.1549C35.5619 53.0184 34.497 54.0869 33.3513 54.6997C32.1979 55.3166 30.9106 55.5 29.5 55.5C28.0894 55.5 26.8021 55.3166 25.6487 54.6997C24.503 54.0869 23.4381 53.0184 22.5243 51.1549C20.6794 47.3925 19.5 40.4961 19.5 28Z" stroke="white"/>
<path d="M24.4987 19.433C35.3207 13.185 41.8828 10.7582 46.0636 10.4747C48.1343 10.3343 49.5921 10.7222 50.6957 11.4081C51.8066 12.0985 52.6091 13.1217 53.3144 14.3433C54.0197 15.5649 54.5045 16.7715 54.547 18.0787C54.5892 19.3774 54.1962 20.8338 53.0393 22.557C50.7034 26.0359 45.3207 30.5055 34.4987 36.7535C23.6768 43.0016 17.1146 45.4284 12.9339 45.7118C10.8631 45.8522 9.40531 45.4643 8.3017 44.7784C7.19082 44.088 6.38831 43.0649 5.68301 41.8433C4.97772 40.6217 4.49289 39.4151 4.45044 38.1078C4.40827 36.8092 4.80119 35.3527 5.95817 33.6296C8.29403 30.1507 13.6768 25.6811 24.4987 19.433Z" stroke="white"/>
<path d="M24.4987 36.7535C13.6768 30.5055 8.29403 26.0359 5.95817 22.557C4.80119 20.8338 4.40827 19.3774 4.45044 18.0787C4.4929 16.7714 4.97772 15.5649 5.68302 14.3433C6.38831 13.1217 7.19082 12.0985 8.3017 11.4081C9.40531 10.7222 10.8631 10.3343 12.9339 10.4747C17.1146 10.7582 23.6768 13.185 34.4987 19.433C45.3207 25.6811 50.7034 30.1507 53.0393 33.6296C54.1962 35.3527 54.5892 36.8092 54.547 38.1078C54.5045 39.4151 54.0197 40.6217 53.3144 41.8433C52.6091 43.0649 51.8066 44.088 50.6957 44.7784C49.5921 45.4643 48.1343 45.8522 46.0636 45.7118C41.8828 45.4284 35.3207 43.0016 24.4987 36.7535Z" stroke="white"/>
<path d="M28.082 25.4688C28.043 25.6094 27.9922 25.8125 27.9297 26.0781C27.875 26.3359 27.8125 26.6328 27.7422 26.9688C27.6797 27.3047 27.6094 27.6602 27.5312 28.0352C27.4609 28.4023 27.3945 28.7656 27.332 29.125C27.2773 29.4844 27.2266 29.8242 27.1797 30.1445C27.1328 30.457 27.1055 30.7227 27.0977 30.9414C27.0898 31.1836 27.0898 31.4219 27.0977 31.6562C27.1055 31.8594 27.1172 32.0703 27.1328 32.2891C27.1562 32.5156 27.1953 32.7148 27.25 32.8867C27.1172 32.9492 27 32.9922 26.8984 33.0156C26.7969 33.0469 26.7148 33.0703 26.6523 33.0859C26.5742 33.1016 26.5078 33.1094 26.4531 33.1094C26.3906 33.1094 26.3164 33.1016 26.2305 33.0859C26.1445 33.0781 26.0664 33.0391 25.9961 32.9688C25.9258 32.8984 25.8672 32.7891 25.8203 32.6406C25.7734 32.4922 25.7578 32.2773 25.7734 31.9961C25.7812 31.8086 25.8125 31.5742 25.8672 31.293C25.9141 31.0195 25.9727 30.7188 26.043 30.3906C26.1133 30.0547 26.1914 29.7109 26.2773 29.3594C26.3711 29 26.4609 28.6523 26.5469 28.3164C26.6328 27.9727 26.7109 27.6484 26.7812 27.3438C26.8594 27.0391 26.9258 26.7773 26.9805 26.5586C27.0508 26.2773 27.1289 25.9492 27.2148 25.5742C27.3633 24.9336 27.5859 23.9727 27.8828 22.6914C27.9375 22.6523 27.9961 22.6172 28.0586 22.5859C28.1211 22.5469 28.1758 22.5156 28.2227 22.4922C28.2773 22.4609 28.332 22.4375 28.3867 22.4219C28.6367 22.3281 28.8125 22.3164 28.9141 22.3867C29.0234 22.457 29.0859 22.5977 29.1016 22.8086C29.1094 22.9492 29.125 23.1523 29.1484 23.418C29.1797 23.6836 29.207 23.9805 29.2305 24.3086C29.2539 24.6367 29.2734 24.9766 29.2891 25.3281C29.3047 25.6719 29.3125 25.9922 29.3125 26.2891C29.3125 26.4844 29.3164 26.7148 29.3242 26.9805C29.332 27.2461 29.3438 27.5273 29.3594 27.8242C29.375 28.1211 29.3945 28.4258 29.418 28.7383C29.4414 29.043 29.4688 29.3359 29.5 29.6172C29.5312 29.8984 29.5625 30.1562 29.5938 30.3906C29.6328 30.625 29.6719 30.8164 29.7109 30.9648C29.7266 31.0273 29.7422 31.0859 29.7578 31.1406C29.7812 31.1953 29.8008 31.25 29.8164 31.3047C29.8633 31.1172 29.9141 30.8945 29.9688 30.6367C30.0312 30.3789 30.0938 30.1055 30.1562 29.8164C30.2266 29.5195 30.293 29.2188 30.3555 28.9141C30.418 28.6016 30.4727 28.3086 30.5195 28.0352C30.5586 27.8164 30.6016 27.5352 30.6484 27.1914C30.6953 26.8477 30.75 26.4766 30.8125 26.0781C30.7266 26.0469 30.6445 26.0156 30.5664 25.9844C30.4961 25.9531 30.4258 25.9141 30.3555 25.8672C30.2852 25.8203 30.2266 25.7656 30.1797 25.7031C30.1875 25.6016 30.1953 25.5273 30.2031 25.4805C30.2188 25.4336 30.2578 25.4297 30.3203 25.4688C30.3672 25.4922 30.4375 25.5195 30.5312 25.5508C30.6328 25.582 30.75 25.6055 30.8828 25.6211C30.9219 25.4023 30.9648 25.1836 31.0117 24.9648C31.0664 24.7461 31.1211 24.5352 31.1758 24.332C31.2617 23.9961 31.3594 23.6953 31.4688 23.4297C31.5781 23.1562 31.7031 22.9258 31.8438 22.7383C31.9922 22.5508 32.1641 22.4062 32.3594 22.3047C32.5547 22.2031 32.7812 22.1484 33.0391 22.1406C33.2812 22.1406 33.4766 22.2422 33.625 22.4453C33.7812 22.6406 33.8477 22.9844 33.8242 23.4766C33.8086 23.8438 33.7305 24.1758 33.5898 24.4727C33.457 24.7617 33.293 25.0195 33.0977 25.2461C32.9023 25.4648 32.6875 25.6484 32.4531 25.7969C32.2188 25.9375 31.9961 26.0391 31.7852 26.1016C31.7148 26.4688 31.6484 26.8398 31.5859 27.2148C31.5234 27.582 31.4609 27.9414 31.3984 28.293C31.3438 28.6367 31.2852 28.9648 31.2227 29.2773C31.168 29.5898 31.1133 29.8672 31.0586 30.1094C31.0039 30.3438 30.9453 30.5977 30.8828 30.8711C30.8281 31.1055 30.7617 31.375 30.6836 31.6797C30.6055 31.9844 30.5234 32.3047 30.4375 32.6406C30.4062 32.7109 30.3672 32.7695 30.3203 32.8164C30.2734 32.8711 30.2266 32.9141 30.1797 32.9453C30.125 32.9844 30.0703 33.0156 30.0156 33.0391C29.8594 33.1016 29.7266 33.1133 29.6172 33.0742C29.5078 33.0352 29.4102 32.9297 29.3242 32.7578C29.2383 32.5781 29.1602 32.3555 29.0898 32.0898C29.0273 31.8242 28.9609 31.5352 28.8906 31.2227C28.8203 30.8867 28.7656 30.5234 28.7266 30.1328C28.6953 29.7344 28.668 29.332 28.6445 28.9258C28.6289 28.5117 28.6172 28.1016 28.6094 27.6953C28.6016 27.2891 28.5859 26.9062 28.5625 26.5469C28.5234 26.0781 28.4844 25.6602 28.4453 25.293C28.4062 24.918 28.3633 24.6016 28.3164 24.3438C28.2852 24.5 28.25 24.6758 28.2109 24.8711C28.1719 25.0664 28.1289 25.2656 28.082 25.4688ZM32.0195 24.9766C31.9805 25.125 31.9492 25.2656 31.9258 25.3984C32.1133 25.2891 32.2891 25.1523 32.4531 24.9883C32.6172 24.8164 32.7578 24.6367 32.875 24.4492C32.9922 24.2617 33.082 24.0742 33.1445 23.8867C33.2148 23.6992 33.2539 23.5273 33.2617 23.3711C33.2695 23.2617 33.2578 23.1758 33.2266 23.1133C33.2031 23.043 33.1562 23.0078 33.0859 23.0078C33.0469 23.0078 32.9844 23.0312 32.8984 23.0781C32.8203 23.1172 32.7305 23.207 32.6289 23.3477C32.5273 23.4805 32.4219 23.6758 32.3125 23.9336C32.2109 24.1914 32.1133 24.5391 32.0195 24.9766Z" fill="white"/>
</svg>
