<svg width="73" height="12" viewBox="0 0 73 12" fill="none" xmlns="http://www.w3.org/2000/svg">
<path d="M3.22461 3.46875C3.18555 3.60938 3.13477 3.8125 3.07227 4.07812C3.01758 4.33594 2.95508 4.63281 2.88477 4.96875C2.82227 5.30469 2.75195 5.66016 2.67383 6.03516C2.60352 6.40234 2.53711 6.76562 2.47461 7.125C2.41992 7.48438 2.36914 7.82422 2.32227 8.14453C2.27539 8.45703 2.24805 8.72266 2.24023 8.94141C2.23242 9.18359 2.23242 9.42188 2.24023 9.65625C2.24805 9.85938 2.25977 10.0703 2.27539 10.2891C2.29883 10.5156 2.33789 10.7148 2.39258 10.8867C2.25977 10.9492 2.14258 10.9922 2.04102 11.0156C1.93945 11.0469 1.85742 11.0703 1.79492 11.0859C1.7168 11.1016 1.65039 11.1094 1.5957 11.1094C1.5332 11.1094 1.45898 11.1016 1.37305 11.0859C1.28711 11.0781 1.20898 11.0391 1.13867 10.9688C1.06836 10.8984 1.00977 10.7891 0.962891 10.6406C0.916016 10.4922 0.900391 10.2773 0.916016 9.99609C0.923828 9.80859 0.955078 9.57422 1.00977 9.29297C1.05664 9.01953 1.11523 8.71875 1.18555 8.39062C1.25586 8.05469 1.33398 7.71094 1.41992 7.35938C1.51367 7 1.60352 6.65234 1.68945 6.31641C1.77539 5.97266 1.85352 5.64844 1.92383 5.34375C2.00195 5.03906 2.06836 4.77734 2.12305 4.55859C2.19336 4.27734 2.27148 3.94922 2.35742 3.57422C2.50586 2.93359 2.72852 1.97266 3.02539 0.691406C3.08008 0.652344 3.13867 0.617187 3.20117 0.585938C3.26367 0.546875 3.31836 0.515625 3.36523 0.492188C3.41992 0.460938 3.47461 0.4375 3.5293 0.421875C3.7793 0.328125 3.95508 0.316406 4.05664 0.386719C4.16602 0.457031 4.22852 0.597656 4.24414 0.808594C4.25195 0.949219 4.26758 1.15234 4.29102 1.41797C4.32227 1.68359 4.34961 1.98047 4.37305 2.30859C4.39648 2.63672 4.41602 2.97656 4.43164 3.32812C4.44727 3.67188 4.45508 3.99219 4.45508 4.28906C4.45508 4.48438 4.45898 4.71484 4.4668 4.98047C4.47461 5.24609 4.48633 5.52734 4.50195 5.82422C4.51758 6.12109 4.53711 6.42578 4.56055 6.73828C4.58398 7.04297 4.61133 7.33594 4.64258 7.61719C4.67383 7.89844 4.70508 8.15625 4.73633 8.39062C4.77539 8.625 4.81445 8.81641 4.85352 8.96484C4.86914 9.02734 4.88477 9.08594 4.90039 9.14062C4.92383 9.19531 4.94336 9.25 4.95898 9.30469C5.00586 9.11719 5.05664 8.89453 5.11133 8.63672C5.17383 8.37891 5.23633 8.10547 5.29883 7.81641C5.36914 7.51953 5.43555 7.21875 5.49805 6.91406C5.56055 6.60156 5.61523 6.30859 5.66211 6.03516C5.70117 5.81641 5.74414 5.53516 5.79102 5.19141C5.83789 4.84766 5.89258 4.47656 5.95508 4.07812C5.86914 4.04688 5.78711 4.01562 5.70898 3.98438C5.63867 3.95312 5.56836 3.91406 5.49805 3.86719C5.42773 3.82031 5.36914 3.76562 5.32227 3.70312C5.33008 3.60156 5.33789 3.52734 5.3457 3.48047C5.36133 3.43359 5.40039 3.42969 5.46289 3.46875C5.50977 3.49219 5.58008 3.51953 5.67383 3.55078C5.77539 3.58203 5.89258 3.60547 6.02539 3.62109C6.06445 3.40234 6.10742 3.18359 6.1543 2.96484C6.20898 2.74609 6.26367 2.53516 6.31836 2.33203C6.4043 1.99609 6.50195 1.69531 6.61133 1.42969C6.7207 1.15625 6.8457 0.925781 6.98633 0.738281C7.13477 0.550781 7.30664 0.40625 7.50195 0.304688C7.69727 0.203125 7.92383 0.148437 8.18164 0.140625C8.42383 0.140625 8.61914 0.242187 8.76758 0.445312C8.92383 0.640625 8.99023 0.984375 8.9668 1.47656C8.95117 1.84375 8.87305 2.17578 8.73242 2.47266C8.59961 2.76172 8.43555 3.01953 8.24023 3.24609C8.04492 3.46484 7.83008 3.64844 7.5957 3.79688C7.36133 3.9375 7.13867 4.03906 6.92773 4.10156C6.85742 4.46875 6.79102 4.83984 6.72852 5.21484C6.66602 5.58203 6.60352 5.94141 6.54102 6.29297C6.48633 6.63672 6.42773 6.96484 6.36523 7.27734C6.31055 7.58984 6.25586 7.86719 6.20117 8.10938C6.14648 8.34375 6.08789 8.59766 6.02539 8.87109C5.9707 9.10547 5.9043 9.375 5.82617 9.67969C5.74805 9.98438 5.66602 10.3047 5.58008 10.6406C5.54883 10.7109 5.50977 10.7695 5.46289 10.8164C5.41602 10.8711 5.36914 10.9141 5.32227 10.9453C5.26758 10.9844 5.21289 11.0156 5.1582 11.0391C5.00195 11.1016 4.86914 11.1133 4.75977 11.0742C4.65039 11.0352 4.55273 10.9297 4.4668 10.7578C4.38086 10.5781 4.30273 10.3555 4.23242 10.0898C4.16992 9.82422 4.10352 9.53516 4.0332 9.22266C3.96289 8.88672 3.9082 8.52344 3.86914 8.13281C3.83789 7.73438 3.81055 7.33203 3.78711 6.92578C3.77148 6.51172 3.75977 6.10156 3.75195 5.69531C3.74414 5.28906 3.72852 4.90625 3.70508 4.54688C3.66602 4.07812 3.62695 3.66016 3.58789 3.29297C3.54883 2.91797 3.50586 2.60156 3.45898 2.34375C3.42773 2.5 3.39258 2.67578 3.35352 2.87109C3.31445 3.06641 3.27148 3.26562 3.22461 3.46875ZM7.16211 2.97656C7.12305 3.125 7.0918 3.26562 7.06836 3.39844C7.25586 3.28906 7.43164 3.15234 7.5957 2.98828C7.75977 2.81641 7.90039 2.63672 8.01758 2.44922C8.13477 2.26172 8.22461 2.07422 8.28711 1.88672C8.35742 1.69922 8.39648 1.52734 8.4043 1.37109C8.41211 1.26172 8.40039 1.17578 8.36914 1.11328C8.3457 1.04297 8.29883 1.00781 8.22852 1.00781C8.18945 1.00781 8.12695 1.03125 8.04102 1.07812C7.96289 1.11719 7.87305 1.20703 7.77148 1.34766C7.66992 1.48047 7.56445 1.67578 7.45508 1.93359C7.35352 2.19141 7.25586 2.53906 7.16211 2.97656ZM13.1973 6.5625C12.9629 6.90625 12.6973 7.24219 12.4004 7.57031C12.1035 7.89062 11.7871 8.17969 11.4512 8.4375C11.123 8.6875 10.7832 8.89062 10.4316 9.04688C10.0879 9.20312 9.75195 9.28125 9.42383 9.28125C9.25195 9.28125 9.06445 9.23828 8.86133 9.15234C8.66602 9.07422 8.48633 8.94922 8.32227 8.77734C8.1582 8.60547 8.02539 8.38281 7.92383 8.10938C7.83008 7.83594 7.80273 7.50391 7.8418 7.11328C7.87305 6.79297 7.9707 6.45703 8.13477 6.10547C8.30664 5.74609 8.51367 5.41797 8.75586 5.12109C9.00586 4.82422 9.2832 4.57812 9.58789 4.38281C9.90039 4.1875 10.2129 4.08984 10.5254 4.08984C10.8223 4.08984 11.0371 4.16406 11.1699 4.3125C11.3027 4.46094 11.3613 4.64453 11.3457 4.86328C11.3223 5.10547 11.252 5.32812 11.1348 5.53125C11.0254 5.73438 10.8926 5.91797 10.7363 6.08203C10.5801 6.24609 10.4121 6.39453 10.2324 6.52734C10.0605 6.66016 9.89648 6.78125 9.74023 6.89062C9.56836 7.00781 9.4043 7.12109 9.24805 7.23047C9.0918 7.33203 8.95508 7.42578 8.83789 7.51172C8.8457 7.70703 8.88086 7.87109 8.94336 8.00391C9.00586 8.13672 9.08398 8.24609 9.17773 8.33203C9.27148 8.41016 9.37695 8.46875 9.49414 8.50781C9.61914 8.53906 9.74414 8.55469 9.86914 8.55469C10.1348 8.55469 10.4121 8.47266 10.7012 8.30859C10.9902 8.13672 11.2715 7.93359 11.5449 7.69922C11.8262 7.45703 12.084 7.20703 12.3184 6.94922C12.5605 6.69141 12.7598 6.46875 12.916 6.28125C12.9707 6.21875 13.0254 6.18359 13.0801 6.17578C13.1426 6.16016 13.1895 6.16797 13.2207 6.19922C13.2598 6.22266 13.2793 6.26953 13.2793 6.33984C13.2793 6.40234 13.252 6.47656 13.1973 6.5625ZM10.1973 4.75781C10.1035 4.75781 9.99023 4.80469 9.85742 4.89844C9.73242 4.99219 9.60742 5.12891 9.48242 5.30859C9.35742 5.48047 9.24023 5.69531 9.13086 5.95312C9.02148 6.20312 8.93945 6.49219 8.88477 6.82031C8.97852 6.75 9.08008 6.67969 9.18945 6.60938C9.29883 6.53125 9.4082 6.44922 9.51758 6.36328C9.85352 6.10547 10.0879 5.87891 10.2207 5.68359C10.3535 5.48828 10.4277 5.32031 10.4434 5.17969C10.459 5.03125 10.4434 4.92578 10.3965 4.86328C10.3496 4.79297 10.2832 4.75781 10.1973 4.75781ZM17.6621 6.5625C17.4277 6.90625 17.1621 7.24219 16.8652 7.57031C16.5684 7.89062 16.252 8.17969 15.916 8.4375C15.5879 8.6875 15.248 8.89062 14.8965 9.04688C14.5527 9.20312 14.2168 9.28125 13.8887 9.28125C13.7168 9.28125 13.5293 9.23828 13.3262 9.15234C13.1309 9.07422 12.9512 8.94922 12.7871 8.77734C12.623 8.60547 12.4902 8.38281 12.3887 8.10938C12.2949 7.83594 12.2676 7.50391 12.3066 7.11328C12.3379 6.79297 12.4355 6.45703 12.5996 6.10547C12.7715 5.74609 12.9785 5.41797 13.2207 5.12109C13.4707 4.82422 13.748 4.57812 14.0527 4.38281C14.3652 4.1875 14.6777 4.08984 14.9902 4.08984C15.2871 4.08984 15.502 4.16406 15.6348 4.3125C15.7676 4.46094 15.8262 4.64453 15.8105 4.86328C15.7871 5.10547 15.7168 5.32812 15.5996 5.53125C15.4902 5.73438 15.3574 5.91797 15.2012 6.08203C15.0449 6.24609 14.877 6.39453 14.6973 6.52734C14.5254 6.66016 14.3613 6.78125 14.2051 6.89062C14.0332 7.00781 13.8691 7.12109 13.7129 7.23047C13.5566 7.33203 13.4199 7.42578 13.3027 7.51172C13.3105 7.70703 13.3457 7.87109 13.4082 8.00391C13.4707 8.13672 13.5488 8.24609 13.6426 8.33203C13.7363 8.41016 13.8418 8.46875 13.959 8.50781C14.084 8.53906 14.209 8.55469 14.334 8.55469C14.5996 8.55469 14.877 8.47266 15.166 8.30859C15.4551 8.13672 15.7363 7.93359 16.0098 7.69922C16.291 7.45703 16.5488 7.20703 16.7832 6.94922C17.0254 6.69141 17.2246 6.46875 17.3809 6.28125C17.4355 6.21875 17.4902 6.18359 17.5449 6.17578C17.6074 6.16016 17.6543 6.16797 17.6855 6.19922C17.7246 6.22266 17.7441 6.26953 17.7441 6.33984C17.7441 6.40234 17.7168 6.47656 17.6621 6.5625ZM14.6621 4.75781C14.5684 4.75781 14.4551 4.80469 14.3223 4.89844C14.1973 4.99219 14.0723 5.12891 13.9473 5.30859C13.8223 5.48047 13.7051 5.69531 13.5957 5.95312C13.4863 6.20312 13.4043 6.49219 13.3496 6.82031C13.4434 6.75 13.5449 6.67969 13.6543 6.60938C13.7637 6.53125 13.873 6.44922 13.9824 6.36328C14.3184 6.10547 14.5527 5.87891 14.6855 5.68359C14.8184 5.48828 14.8926 5.32031 14.9082 5.17969C14.9238 5.03125 14.9082 4.92578 14.8613 4.86328C14.8145 4.79297 14.748 4.75781 14.6621 4.75781ZM22.2793 8.46094C22.2793 8.29688 22.2949 8.10938 22.3262 7.89844C22.3652 7.6875 22.4121 7.47266 22.4668 7.25391C22.5215 7.02734 22.5762 6.80859 22.6309 6.59766C22.6855 6.38672 22.7324 6.19922 22.7715 6.03516C22.8184 5.83203 22.8145 5.67578 22.7598 5.56641C22.7051 5.45703 22.6113 5.40234 22.4785 5.40234C22.416 5.40234 22.291 5.45703 22.1035 5.56641C21.9238 5.67578 21.7246 5.86719 21.5059 6.14062C21.2949 6.40625 21.084 6.76953 20.873 7.23047C20.6699 7.68359 20.5098 8.26172 20.3926 8.96484C20.2441 9.04297 20.1035 9.09375 19.9707 9.11719C19.9004 9.13281 19.8379 9.14453 19.7832 9.15234C19.627 9.16016 19.5254 9.13281 19.4785 9.07031C19.4316 9.01562 19.4395 8.875 19.502 8.64844C19.5332 8.53906 19.5879 8.36328 19.666 8.12109C19.752 7.87891 19.834 7.61719 19.9121 7.33594C19.9902 7.04688 20.0566 6.76172 20.1113 6.48047C20.1738 6.19141 20.2051 5.94141 20.2051 5.73047C20.2051 5.58203 20.1777 5.48047 20.123 5.42578C20.0762 5.37109 20.0059 5.34375 19.9121 5.34375C19.8418 5.34375 19.7246 5.38281 19.5605 5.46094C19.3965 5.53906 19.2129 5.69141 19.0098 5.91797C18.8066 6.14453 18.6035 6.46094 18.4004 6.86719C18.2051 7.26562 18.0371 7.78516 17.8965 8.42578V8.40234C17.8809 8.46484 17.8652 8.52734 17.8496 8.58984C17.834 8.64453 17.8223 8.70312 17.8145 8.76562C17.8066 8.82812 17.7949 8.88672 17.7793 8.94141L17.1934 9.19922C17.1543 9.21484 17.1035 9.22656 17.041 9.23438C16.9863 9.24219 16.9316 9.23047 16.877 9.19922C16.8301 9.17578 16.7949 9.12109 16.7715 9.03516C16.748 8.94922 16.7559 8.82031 16.7949 8.64844L17.5332 5.58984C17.5566 5.48828 17.5762 5.39062 17.5918 5.29688C17.6074 5.21094 17.6152 5.12891 17.6152 5.05078C17.623 4.96484 17.6191 4.89453 17.6035 4.83984C17.7363 4.77734 17.8535 4.73047 17.9551 4.69922C18.0566 4.66797 18.1387 4.64453 18.2012 4.62891C18.2793 4.60547 18.3457 4.59375 18.4004 4.59375C18.6504 4.59375 18.7324 4.80859 18.6465 5.23828C18.6152 5.36328 18.5684 5.54688 18.5059 5.78906C18.6543 5.60156 18.8105 5.42578 18.9746 5.26172C19.1465 5.08984 19.3184 4.9375 19.4902 4.80469C19.6621 4.67188 19.834 4.56641 20.0059 4.48828C20.1855 4.41016 20.3613 4.37109 20.5332 4.37109C20.666 4.37109 20.7754 4.41016 20.8613 4.48828C20.9551 4.56641 21.0254 4.67188 21.0723 4.80469C21.127 4.92969 21.1582 5.08203 21.166 5.26172C21.1738 5.43359 21.166 5.61328 21.1426 5.80078C21.2676 5.63672 21.4043 5.47266 21.5527 5.30859C21.709 5.13672 21.8691 4.98438 22.0332 4.85156C22.2051 4.71875 22.3809 4.60938 22.5605 4.52344C22.7402 4.4375 22.9199 4.39453 23.0996 4.39453C23.3105 4.39453 23.4707 4.45703 23.5801 4.58203C23.6973 4.70703 23.7754 4.86719 23.8145 5.0625C23.8613 5.25781 23.873 5.46875 23.8496 5.69531C23.834 5.92188 23.8027 6.14062 23.7559 6.35156L23.3574 7.93359C23.2715 8.32422 23.3535 8.51953 23.6035 8.51953C23.7988 8.51953 24.0137 8.42578 24.248 8.23828C24.4824 8.05078 24.709 7.82812 24.9277 7.57031C25.1543 7.3125 25.3652 7.04688 25.5605 6.77344C25.7559 6.5 25.9199 6.28125 26.0527 6.11719C26.0996 6.0625 26.1465 6.03125 26.1934 6.02344C26.248 6.01562 26.291 6.02734 26.3223 6.05859C26.3613 6.08203 26.3809 6.125 26.3809 6.1875C26.3887 6.25 26.3691 6.32812 26.3223 6.42188C26.166 6.69531 25.9746 7 25.748 7.33594C25.5215 7.66406 25.2715 7.97266 24.998 8.26172C24.7324 8.55078 24.4473 8.79297 24.1426 8.98828C23.8379 9.18359 23.5215 9.28125 23.1934 9.28125C23.084 9.28125 22.9746 9.26953 22.8652 9.24609C22.7637 9.22266 22.666 9.17969 22.5723 9.11719C22.4863 9.05469 22.416 8.97266 22.3613 8.87109C22.3066 8.76172 22.2793 8.625 22.2793 8.46094ZM28.0098 2.09766C27.9863 2.18359 27.9395 2.26953 27.8691 2.35547C27.8066 2.43359 27.7324 2.5 27.6465 2.55469C27.5684 2.60156 27.4863 2.63281 27.4004 2.64844C27.3145 2.66406 27.2441 2.64844 27.1895 2.60156C27.0254 2.47656 26.9395 2.34375 26.9316 2.20312C26.9238 2.05469 26.959 1.91797 27.0371 1.79297C27.1152 1.66016 27.2129 1.55078 27.3301 1.46484C27.4473 1.37109 27.5488 1.31641 27.6348 1.30078C27.7207 1.28516 27.791 1.30469 27.8457 1.35938C27.9082 1.40625 27.9551 1.47266 27.9863 1.55859C28.0176 1.63672 28.0332 1.72656 28.0332 1.82812C28.041 1.92969 28.0332 2.01953 28.0098 2.09766ZM26.3926 4.59375C26.4316 4.54688 26.5059 4.50781 26.6152 4.47656C26.7246 4.44531 26.8379 4.42188 26.9551 4.40625C27.0723 4.38281 27.1777 4.37109 27.2715 4.37109C27.373 4.36328 27.4316 4.36328 27.4473 4.37109C27.4551 4.37891 27.4355 4.46094 27.3887 4.61719C27.3418 4.77344 27.2832 4.95703 27.2129 5.16797C27.1426 5.37891 27.0684 5.59766 26.9902 5.82422C26.9121 6.04297 26.8535 6.22266 26.8145 6.36328C26.7754 6.50391 26.7285 6.66406 26.6738 6.84375C26.6191 7.01562 26.5684 7.1875 26.5215 7.35938C26.4824 7.52344 26.4551 7.67969 26.4395 7.82812C26.4238 7.97656 26.4355 8.08984 26.4746 8.16797C26.5137 8.26172 26.5566 8.32812 26.6035 8.36719C26.6504 8.39844 26.7012 8.41406 26.7559 8.41406C26.9121 8.41406 27.1074 8.32812 27.3418 8.15625C27.584 7.98438 27.8262 7.78125 28.0684 7.54688C28.3184 7.30469 28.5488 7.0625 28.7598 6.82031C28.9707 6.57031 29.127 6.37109 29.2285 6.22266C29.291 6.14453 29.3535 6.09375 29.416 6.07031C29.4863 6.04688 29.541 6.05078 29.5801 6.08203C29.627 6.11328 29.6504 6.16406 29.6504 6.23438C29.6582 6.30469 29.6348 6.38672 29.5801 6.48047C29.4551 6.69922 29.2715 6.96094 29.0293 7.26562C28.7871 7.5625 28.5293 7.85156 28.2559 8.13281C27.9824 8.40625 27.7129 8.64062 27.4473 8.83594C27.1895 9.03125 26.9785 9.13281 26.8145 9.14062C26.6816 9.14844 26.5488 9.125 26.416 9.07031C26.291 9.02344 26.1738 8.95703 26.0645 8.87109C25.9629 8.77734 25.877 8.67188 25.8066 8.55469C25.7363 8.42969 25.6973 8.30078 25.6895 8.16797C25.666 7.97266 25.666 7.70703 25.6895 7.37109C25.7129 7.02734 25.7559 6.67969 25.8184 6.32812C25.8809 5.96875 25.959 5.62891 26.0527 5.30859C26.1543 4.98828 26.2676 4.75 26.3926 4.59375ZM34.7363 6.66797C34.627 6.82422 34.4863 7.01953 34.3145 7.25391C34.1426 7.48047 33.9629 7.71094 33.7754 7.94531C33.5957 8.17188 33.416 8.38281 33.2363 8.57812C33.0645 8.76562 32.9199 8.89844 32.8027 8.97656C32.7246 9.02344 32.6348 9.0625 32.5332 9.09375C32.4316 9.125 32.3262 9.14453 32.2168 9.15234C32.1152 9.16016 32.0176 9.15234 31.9238 9.12891C31.8301 9.11328 31.748 9.08203 31.6777 9.03516C31.6074 8.98047 31.5488 8.90234 31.502 8.80078C31.4629 8.71484 31.4238 8.60156 31.3848 8.46094C31.3535 8.32031 31.3418 8.14453 31.3496 7.93359C31.1621 8.24609 30.9551 8.48828 30.7285 8.66016C30.502 8.82422 30.2871 8.94531 30.084 9.02344C29.8496 9.10938 29.6152 9.16016 29.3809 9.17578C29.2715 9.17578 29.1543 9.13672 29.0293 9.05859C28.9043 8.98828 28.7988 8.875 28.7129 8.71875C28.627 8.55469 28.5723 8.34766 28.5488 8.09766C28.5254 7.83984 28.5566 7.53516 28.6426 7.18359C28.752 6.70703 28.9238 6.27344 29.1582 5.88281C29.4004 5.49219 29.6621 5.16016 29.9434 4.88672C30.2246 4.60547 30.502 4.39453 30.7754 4.25391C31.0488 4.11328 31.2754 4.05078 31.4551 4.06641C31.666 4.10547 31.8379 4.16797 31.9707 4.25391C32.0801 4.33203 32.1504 4.44922 32.1816 4.60547C32.2207 4.75391 32.1582 4.95312 31.9941 5.20312C32.1035 5.17969 32.1934 5.16406 32.2637 5.15625C32.3418 5.14844 32.4004 5.14453 32.4395 5.14453C32.4863 5.14453 32.5176 5.14844 32.5332 5.15625C32.541 5.17188 32.5449 5.20703 32.5449 5.26172C32.5449 5.30859 32.5332 5.39844 32.5098 5.53125C32.4863 5.66406 32.4512 5.84375 32.4043 6.07031C32.3574 6.29688 32.2949 6.58984 32.2168 6.94922C32.2012 7.01953 32.1855 7.08594 32.1699 7.14844C32.1621 7.20312 32.1504 7.26172 32.1348 7.32422C32.127 7.37891 32.1152 7.44531 32.0996 7.52344C32.084 7.60156 32.0645 7.69922 32.041 7.81641C32.0332 7.88672 32.0293 7.96484 32.0293 8.05078C32.0371 8.12891 32.0527 8.20312 32.0762 8.27344C32.0996 8.34375 32.1348 8.40234 32.1816 8.44922C32.2363 8.48828 32.3105 8.50781 32.4043 8.50781C32.4824 8.50781 32.584 8.46094 32.709 8.36719C32.834 8.26562 32.9668 8.14062 33.1074 7.99219C33.248 7.83594 33.3926 7.66797 33.541 7.48828C33.6973 7.30078 33.8418 7.12109 33.9746 6.94922C34.1074 6.77734 34.2246 6.625 34.3262 6.49219C34.4355 6.35938 34.5137 6.26172 34.5605 6.19922C34.623 6.12891 34.6855 6.08984 34.748 6.08203C34.8105 6.06641 34.8574 6.08203 34.8887 6.12891C34.9199 6.17578 34.9238 6.24609 34.9004 6.33984C34.8848 6.43359 34.8301 6.54297 34.7363 6.66797ZM31.3027 7.18359C31.3418 7.02734 31.3887 6.84375 31.4434 6.63281C31.498 6.42188 31.5449 6.21875 31.584 6.02344C31.623 5.82812 31.6504 5.66797 31.666 5.54297C31.6895 5.41016 31.6855 5.34766 31.6543 5.35547C31.6152 5.36328 31.5723 5.375 31.5254 5.39062C31.4863 5.40625 31.4355 5.41797 31.373 5.42578C31.3105 5.43359 31.248 5.44531 31.1855 5.46094C31.248 5.33594 31.2832 5.23438 31.291 5.15625C31.3066 5.07031 31.3105 5.00391 31.3027 4.95703C31.2949 4.90234 31.2793 4.85938 31.2559 4.82812C31.1699 4.75781 31.0176 4.81641 30.7988 5.00391C30.5879 5.18359 30.3418 5.51953 30.0605 6.01172C29.9434 6.21484 29.8496 6.43359 29.7793 6.66797C29.709 6.89453 29.6582 7.10938 29.627 7.3125C29.6035 7.51562 29.5996 7.69531 29.6152 7.85156C29.6309 8 29.6621 8.09766 29.709 8.14453C29.7949 8.23047 29.8926 8.27344 30.002 8.27344C30.1113 8.26562 30.2207 8.23438 30.3301 8.17969C30.4473 8.11719 30.5605 8.03906 30.6699 7.94531C30.7871 7.85156 30.8887 7.75391 30.9746 7.65234C31.0684 7.55078 31.1426 7.45703 31.1973 7.37109C31.2598 7.28516 31.2949 7.22266 31.3027 7.18359ZM35.6035 8.60156C35.6504 8.63281 35.709 8.64844 35.7793 8.64844C35.8574 8.64844 35.9316 8.63281 36.002 8.60156C36.0801 8.57031 36.1504 8.52734 36.2129 8.47266C36.2832 8.41797 36.334 8.34766 36.3652 8.26172C36.3965 8.17578 36.3965 8.05469 36.3652 7.89844C36.334 7.73438 36.2832 7.5625 36.2129 7.38281C36.1504 7.19531 36.0801 7.00781 36.002 6.82031C35.9238 6.63281 35.8574 6.46094 35.8027 6.30469C35.7559 6.1875 35.7168 6.07812 35.6855 5.97656C35.6543 5.89062 35.623 5.80859 35.5918 5.73047C35.5684 5.64453 35.5488 5.58594 35.5332 5.55469C35.4941 5.61719 35.4238 5.71875 35.3223 5.85938C35.2285 6 35.123 6.14844 35.0059 6.30469C34.8965 6.45312 34.791 6.59375 34.6895 6.72656C34.5879 6.85156 34.5176 6.9375 34.4785 6.98438C34.416 7.05469 34.3535 7.09766 34.291 7.11328C34.2363 7.12109 34.1895 7.10938 34.1504 7.07812C34.1113 7.03906 34.0879 6.98828 34.0801 6.92578C34.0801 6.85547 34.1113 6.77344 34.1738 6.67969C34.2207 6.61719 34.291 6.51953 34.3848 6.38672C34.4785 6.24609 34.5723 6.10547 34.666 5.96484C34.7598 5.81641 34.8457 5.6875 34.9238 5.57812C35.002 5.46094 35.0449 5.39062 35.0527 5.36719C35.0684 5.30469 35.0449 5.22266 34.9824 5.12109C34.9277 5.01953 34.9199 4.90234 34.959 4.76953C34.9902 4.66016 35.0605 4.53516 35.1699 4.39453C35.2793 4.24609 35.4082 4.11328 35.5566 3.99609C35.7051 3.87891 35.8574 3.79297 36.0137 3.73828C36.1699 3.67578 36.3105 3.67578 36.4355 3.73828C36.5371 3.80078 36.6191 3.87109 36.6816 3.94922C36.7441 4.01953 36.7676 4.09375 36.752 4.17188C36.7363 4.21094 36.7129 4.26172 36.6816 4.32422C36.6504 4.38672 36.6035 4.46484 36.541 4.55859C36.4785 4.64453 36.3887 4.75781 36.2715 4.89844C36.2949 5.07812 36.3262 5.24219 36.3652 5.39062C36.4121 5.53906 36.4551 5.66797 36.4941 5.77734C36.541 5.91016 36.5918 6.03125 36.6465 6.14062C36.7168 6.28125 36.791 6.42578 36.8691 6.57422C36.9473 6.72266 37.0176 6.87109 37.0801 7.01953C37.1426 7.16016 37.1934 7.29297 37.2324 7.41797C37.2715 7.54297 37.2832 7.64844 37.2676 7.73438C37.2441 7.86719 37.1738 8.02734 37.0566 8.21484C36.9473 8.40234 36.8066 8.58594 36.6348 8.76562C36.4707 8.9375 36.2793 9.08594 36.0605 9.21094C35.8496 9.33594 35.627 9.39844 35.3926 9.39844C35.2285 9.39844 35.0684 9.34766 34.9121 9.24609C34.7637 9.14453 34.6348 9.02734 34.5254 8.89453C34.4238 8.75391 34.3457 8.61719 34.291 8.48438C34.2441 8.35156 34.2402 8.25 34.2793 8.17969C34.3262 8.08594 34.3691 8.01172 34.4082 7.95703C34.4473 7.90234 34.5059 7.83984 34.584 7.76953C34.6152 7.74609 34.6543 7.71875 34.7012 7.6875C34.7402 7.66406 34.7949 7.64062 34.8652 7.61719C34.9355 7.59375 35.0176 7.56641 35.1113 7.53516C35.1895 7.77734 35.2598 7.96875 35.3223 8.10938C35.3848 8.24219 35.4355 8.34766 35.4746 8.42578C35.5215 8.51172 35.5645 8.57031 35.6035 8.60156ZM46.6074 0.175781C46.8809 0.175781 47.1035 0.253906 47.2754 0.410156C47.4551 0.558594 47.5332 0.832031 47.5098 1.23047C47.502 1.36328 47.4707 1.61328 47.416 1.98047C47.3613 2.33984 47.2949 2.76562 47.2168 3.25781C47.1387 3.75 47.0488 4.28125 46.9473 4.85156C46.8535 5.41406 46.7637 5.96484 46.6777 6.50391H46.9238C47.002 6.50391 47.0879 6.5 47.1816 6.49219C47.2754 6.48438 47.373 6.47266 47.4746 6.45703C47.4355 6.55078 47.3926 6.64062 47.3457 6.72656C47.2988 6.80469 47.252 6.875 47.2051 6.9375C47.1504 7.00781 47.0957 7.07031 47.041 7.125C46.9707 7.21094 46.8887 7.28906 46.7949 7.35938C46.7012 7.42188 46.6113 7.47266 46.5254 7.51172C46.4707 7.89453 46.4238 8.23828 46.3848 8.54297C46.3535 8.83984 46.334 9.08594 46.3262 9.28125C46.3105 9.57812 46.3184 9.85547 46.3496 10.1133C46.373 10.3398 46.4199 10.5703 46.4902 10.8047C46.5605 11.0391 46.6738 11.2266 46.8301 11.3672L45.4707 11.8125C45.377 11.6797 45.3066 11.5 45.2598 11.2734C45.2207 11.0547 45.1934 10.8359 45.1777 10.6172C45.1543 10.3594 45.1504 10.0938 45.166 9.82031C45.1816 9.54688 45.2246 9.19141 45.2949 8.75391C45.3652 8.30859 45.4434 7.82422 45.5293 7.30078C45.373 7.25391 45.2012 7.21484 45.0137 7.18359C44.834 7.15234 44.6309 7.13672 44.4043 7.13672C44.2012 7.13672 43.9863 7.14453 43.7598 7.16016C43.541 7.17578 43.3223 7.19531 43.1035 7.21875C43.0098 7.5625 42.916 7.92578 42.8223 8.30859C42.7207 8.72266 42.627 9.07422 42.541 9.36328C42.4629 9.66016 42.3848 9.90625 42.3066 10.1016C42.2363 10.2969 42.1621 10.4531 42.084 10.5703C42.0137 10.6875 41.9355 10.7734 41.8496 10.8281C41.7559 10.875 41.6387 10.918 41.498 10.957C41.3652 10.9961 41.1973 11.0352 40.9941 11.0742C40.791 11.1133 40.5293 11.1445 40.209 11.168C40.3262 11.0273 40.4277 10.8984 40.5137 10.7812C40.5996 10.6641 40.6855 10.5195 40.7715 10.3477C40.8574 10.1758 40.9551 9.95312 41.0645 9.67969C41.166 9.41406 41.2988 9.0625 41.4629 8.625C41.5332 8.44531 41.6035 8.25 41.6738 8.03906C41.752 7.82031 41.834 7.59766 41.9199 7.37109C41.6387 7.41016 41.4004 7.44531 41.2051 7.47656C41.0098 7.50781 40.8926 7.53125 40.8535 7.54688C40.791 7.55469 40.7402 7.55469 40.7012 7.54688C40.5996 7.53125 40.5449 7.48047 40.5371 7.39453C40.5449 7.28516 40.584 7.21094 40.6543 7.17188C40.7168 7.13281 40.8145 7.08594 40.9473 7.03125C41.0098 7 41.1543 6.94531 41.3809 6.86719C41.5996 6.78125 41.8691 6.69141 42.1895 6.59766C42.3066 6.26953 42.4199 5.94531 42.5293 5.625C42.6465 5.29688 42.7598 4.98438 42.8691 4.6875C42.9785 4.39062 43.084 4.11328 43.1855 3.85547C43.2871 3.58984 43.3809 3.36328 43.4668 3.17578C43.5996 2.88672 43.7676 2.57031 43.9707 2.22656C44.1816 1.875 44.4199 1.54688 44.6855 1.24219C44.959 0.9375 45.2559 0.683594 45.5762 0.480469C45.9043 0.277344 46.248 0.175781 46.6074 0.175781ZM46.4785 2.61328C46.5645 2.26172 46.623 1.97266 46.6543 1.74609C46.6855 1.51953 46.6973 1.34375 46.6895 1.21875C46.6816 1.08594 46.6543 0.996094 46.6074 0.949219C46.5684 0.894531 46.5176 0.867188 46.4551 0.867188C46.3535 0.867188 46.2285 0.90625 46.0801 0.984375C45.9316 1.0625 45.7754 1.17578 45.6113 1.32422C45.4473 1.46484 45.2832 1.64453 45.1191 1.86328C44.9629 2.07422 44.8223 2.31641 44.6973 2.58984C44.5176 2.99609 44.3145 3.49609 44.0879 4.08984C43.8613 4.67578 43.6152 5.42578 43.3496 6.33984C43.5059 6.31641 43.6582 6.29688 43.8066 6.28125C43.9629 6.26562 44.1152 6.25781 44.2637 6.25781C44.5293 6.25781 44.7832 6.26953 45.0254 6.29297C45.2676 6.30859 45.4902 6.32812 45.6934 6.35156C45.7637 5.97656 45.834 5.60938 45.9043 5.25C45.9824 4.88281 46.0566 4.53516 46.127 4.20703C46.1973 3.87891 46.2598 3.57812 46.3145 3.30469C46.377 3.03125 46.4316 2.80078 46.4785 2.61328ZM53.627 8.46094C53.627 8.29688 53.6426 8.10938 53.6738 7.89844C53.7129 7.6875 53.7598 7.47266 53.8145 7.25391C53.8691 7.02734 53.9238 6.80859 53.9785 6.59766C54.0332 6.38672 54.0801 6.19922 54.1191 6.03516C54.166 5.83203 54.1621 5.67578 54.1074 5.56641C54.0527 5.45703 53.959 5.40234 53.8262 5.40234C53.7637 5.40234 53.6387 5.45703 53.4512 5.56641C53.2715 5.67578 53.0723 5.86719 52.8535 6.14062C52.6426 6.40625 52.4316 6.76953 52.2207 7.23047C52.0176 7.68359 51.8574 8.26172 51.7402 8.96484C51.5918 9.04297 51.4512 9.09375 51.3184 9.11719C51.248 9.13281 51.1855 9.14453 51.1309 9.15234C50.9746 9.16016 50.873 9.13281 50.8262 9.07031C50.7793 9.01562 50.7871 8.875 50.8496 8.64844C50.8809 8.53906 50.9355 8.36328 51.0137 8.12109C51.0996 7.87891 51.1816 7.61719 51.2598 7.33594C51.3379 7.04688 51.4043 6.76172 51.459 6.48047C51.5215 6.19141 51.5527 5.94141 51.5527 5.73047C51.5527 5.58203 51.5254 5.48047 51.4707 5.42578C51.4238 5.37109 51.3535 5.34375 51.2598 5.34375C51.1895 5.34375 51.0723 5.38281 50.9082 5.46094C50.7441 5.53906 50.5605 5.69141 50.3574 5.91797C50.1543 6.14453 49.9512 6.46094 49.748 6.86719C49.5527 7.26562 49.3848 7.78516 49.2441 8.42578V8.40234C49.2285 8.46484 49.2129 8.52734 49.1973 8.58984C49.1816 8.64453 49.1699 8.70312 49.1621 8.76562C49.1543 8.82812 49.1426 8.88672 49.127 8.94141L48.541 9.19922C48.502 9.21484 48.4512 9.22656 48.3887 9.23438C48.334 9.24219 48.2793 9.23047 48.2246 9.19922C48.1777 9.17578 48.1426 9.12109 48.1191 9.03516C48.0957 8.94922 48.1035 8.82031 48.1426 8.64844L48.8809 5.58984C48.9043 5.48828 48.9238 5.39062 48.9395 5.29688C48.9551 5.21094 48.9629 5.12891 48.9629 5.05078C48.9707 4.96484 48.9668 4.89453 48.9512 4.83984C49.084 4.77734 49.2012 4.73047 49.3027 4.69922C49.4043 4.66797 49.4863 4.64453 49.5488 4.62891C49.627 4.60547 49.6934 4.59375 49.748 4.59375C49.998 4.59375 50.0801 4.80859 49.9941 5.23828C49.9629 5.36328 49.916 5.54688 49.8535 5.78906C50.002 5.60156 50.1582 5.42578 50.3223 5.26172C50.4941 5.08984 50.666 4.9375 50.8379 4.80469C51.0098 4.67188 51.1816 4.56641 51.3535 4.48828C51.5332 4.41016 51.709 4.37109 51.8809 4.37109C52.0137 4.37109 52.123 4.41016 52.209 4.48828C52.3027 4.56641 52.373 4.67188 52.4199 4.80469C52.4746 4.92969 52.5059 5.08203 52.5137 5.26172C52.5215 5.43359 52.5137 5.61328 52.4902 5.80078C52.6152 5.63672 52.752 5.47266 52.9004 5.30859C53.0566 5.13672 53.2168 4.98438 53.3809 4.85156C53.5527 4.71875 53.7285 4.60938 53.9082 4.52344C54.0879 4.4375 54.2676 4.39453 54.4473 4.39453C54.6582 4.39453 54.8184 4.45703 54.9277 4.58203C55.0449 4.70703 55.123 4.86719 55.1621 5.0625C55.209 5.25781 55.2207 5.46875 55.1973 5.69531C55.1816 5.92188 55.1504 6.14062 55.1035 6.35156L54.7051 7.93359C54.6191 8.32422 54.7012 8.51953 54.9512 8.51953C55.1465 8.51953 55.3613 8.42578 55.5957 8.23828C55.8301 8.05078 56.0566 7.82812 56.2754 7.57031C56.502 7.3125 56.7129 7.04688 56.9082 6.77344C57.1035 6.5 57.2676 6.28125 57.4004 6.11719C57.4473 6.0625 57.4941 6.03125 57.541 6.02344C57.5957 6.01562 57.6387 6.02734 57.6699 6.05859C57.709 6.08203 57.7285 6.125 57.7285 6.1875C57.7363 6.25 57.7168 6.32812 57.6699 6.42188C57.5137 6.69531 57.3223 7 57.0957 7.33594C56.8691 7.66406 56.6191 7.97266 56.3457 8.26172C56.0801 8.55078 55.7949 8.79297 55.4902 8.98828C55.1855 9.18359 54.8691 9.28125 54.541 9.28125C54.4316 9.28125 54.3223 9.26953 54.2129 9.24609C54.1113 9.22266 54.0137 9.17969 53.9199 9.11719C53.834 9.05469 53.7637 8.97266 53.709 8.87109C53.6543 8.76172 53.627 8.625 53.627 8.46094ZM62.791 6.66797C62.6816 6.82422 62.541 7.01953 62.3691 7.25391C62.1973 7.48047 62.0176 7.71094 61.8301 7.94531C61.6504 8.17188 61.4707 8.38281 61.291 8.57812C61.1191 8.76562 60.9746 8.89844 60.8574 8.97656C60.7793 9.02344 60.6895 9.0625 60.5879 9.09375C60.4863 9.125 60.3809 9.14453 60.2715 9.15234C60.1699 9.16016 60.0723 9.15234 59.9785 9.12891C59.8848 9.11328 59.8027 9.08203 59.7324 9.03516C59.6621 8.98047 59.6035 8.90234 59.5566 8.80078C59.5176 8.71484 59.4785 8.60156 59.4395 8.46094C59.4082 8.32031 59.3965 8.14453 59.4043 7.93359C59.2168 8.24609 59.0098 8.48828 58.7832 8.66016C58.5566 8.82422 58.3418 8.94531 58.1387 9.02344C57.9043 9.10938 57.6699 9.16016 57.4355 9.17578C57.3262 9.17578 57.209 9.13672 57.084 9.05859C56.959 8.98828 56.8535 8.875 56.7676 8.71875C56.6816 8.55469 56.627 8.34766 56.6035 8.09766C56.5801 7.83984 56.6113 7.53516 56.6973 7.18359C56.8066 6.70703 56.9785 6.27344 57.2129 5.88281C57.4551 5.49219 57.7168 5.16016 57.998 4.88672C58.2793 4.60547 58.5566 4.39453 58.8301 4.25391C59.1035 4.11328 59.3301 4.05078 59.5098 4.06641C59.7207 4.10547 59.8926 4.16797 60.0254 4.25391C60.1348 4.33203 60.2051 4.44922 60.2363 4.60547C60.2754 4.75391 60.2129 4.95312 60.0488 5.20312C60.1582 5.17969 60.248 5.16406 60.3184 5.15625C60.3965 5.14844 60.4551 5.14453 60.4941 5.14453C60.541 5.14453 60.5723 5.14844 60.5879 5.15625C60.5957 5.17188 60.5996 5.20703 60.5996 5.26172C60.5996 5.30859 60.5879 5.39844 60.5645 5.53125C60.541 5.66406 60.5059 5.84375 60.459 6.07031C60.4121 6.29688 60.3496 6.58984 60.2715 6.94922C60.2559 7.01953 60.2402 7.08594 60.2246 7.14844C60.2168 7.20312 60.2051 7.26172 60.1895 7.32422C60.1816 7.37891 60.1699 7.44531 60.1543 7.52344C60.1387 7.60156 60.1191 7.69922 60.0957 7.81641C60.0879 7.88672 60.084 7.96484 60.084 8.05078C60.0918 8.12891 60.1074 8.20312 60.1309 8.27344C60.1543 8.34375 60.1895 8.40234 60.2363 8.44922C60.291 8.48828 60.3652 8.50781 60.459 8.50781C60.5371 8.50781 60.6387 8.46094 60.7637 8.36719C60.8887 8.26562 61.0215 8.14062 61.1621 7.99219C61.3027 7.83594 61.4473 7.66797 61.5957 7.48828C61.752 7.30078 61.8965 7.12109 62.0293 6.94922C62.1621 6.77734 62.2793 6.625 62.3809 6.49219C62.4902 6.35938 62.5684 6.26172 62.6152 6.19922C62.6777 6.12891 62.7402 6.08984 62.8027 6.08203C62.8652 6.06641 62.9121 6.08203 62.9434 6.12891C62.9746 6.17578 62.9785 6.24609 62.9551 6.33984C62.9395 6.43359 62.8848 6.54297 62.791 6.66797ZM59.3574 7.18359C59.3965 7.02734 59.4434 6.84375 59.498 6.63281C59.5527 6.42188 59.5996 6.21875 59.6387 6.02344C59.6777 5.82812 59.7051 5.66797 59.7207 5.54297C59.7441 5.41016 59.7402 5.34766 59.709 5.35547C59.6699 5.36328 59.627 5.375 59.5801 5.39062C59.541 5.40625 59.4902 5.41797 59.4277 5.42578C59.3652 5.43359 59.3027 5.44531 59.2402 5.46094C59.3027 5.33594 59.3379 5.23438 59.3457 5.15625C59.3613 5.07031 59.3652 5.00391 59.3574 4.95703C59.3496 4.90234 59.334 4.85938 59.3105 4.82812C59.2246 4.75781 59.0723 4.81641 58.8535 5.00391C58.6426 5.18359 58.3965 5.51953 58.1152 6.01172C57.998 6.21484 57.9043 6.43359 57.834 6.66797C57.7637 6.89453 57.7129 7.10938 57.6816 7.3125C57.6582 7.51562 57.6543 7.69531 57.6699 7.85156C57.6855 8 57.7168 8.09766 57.7637 8.14453C57.8496 8.23047 57.9473 8.27344 58.0566 8.27344C58.166 8.26562 58.2754 8.23438 58.3848 8.17969C58.502 8.11719 58.6152 8.03906 58.7246 7.94531C58.8418 7.85156 58.9434 7.75391 59.0293 7.65234C59.123 7.55078 59.1973 7.45703 59.252 7.37109C59.3145 7.28516 59.3496 7.22266 59.3574 7.18359ZM61.5605 8.94141C61.5059 9.02734 61.4473 9.08203 61.3848 9.10547C61.3145 9.13672 61.2559 9.14062 61.209 9.11719C61.1543 9.10156 61.1191 9.0625 61.1035 9C61.0879 8.9375 61.1035 8.85938 61.1504 8.76562C61.1738 8.71875 61.2285 8.61328 61.3145 8.44922C61.3926 8.28516 61.4902 8.08984 61.6074 7.86328C61.7168 7.62891 61.8379 7.37891 61.9707 7.11328C62.1035 6.83984 62.2285 6.58203 62.3457 6.33984C62.4707 6.09766 62.584 5.88281 62.6855 5.69531C62.7871 5.5 62.8613 5.35938 62.9082 5.27344C62.8223 5.19531 62.7637 5.14062 62.7324 5.10938C62.7012 5.07031 62.6777 4.99219 62.6621 4.875C62.6465 4.77344 62.6699 4.64062 62.7324 4.47656C62.7949 4.3125 62.877 4.15625 62.9785 4.00781C63.0801 3.85156 63.1934 3.71875 63.3184 3.60938C63.4434 3.5 63.5645 3.44531 63.6816 3.44531C63.9004 3.44531 64.0527 3.51562 64.1387 3.65625C64.2324 3.79688 64.2871 3.94141 64.3027 4.08984C64.3184 4.19141 64.3105 4.32031 64.2793 4.47656C64.248 4.63281 64.1895 4.77344 64.1035 4.89844C64.127 4.91406 64.1582 4.93359 64.1973 4.95703C64.2363 4.97266 64.2988 4.98047 64.3848 4.98047C64.5098 4.98047 64.5957 4.97266 64.6426 4.95703C64.6973 4.94141 64.7793 4.93359 64.8887 4.93359C65.0215 4.93359 65.1309 4.96875 65.2168 5.03906C65.3027 5.10156 65.373 5.18359 65.4277 5.28516C65.4824 5.37891 65.5215 5.48438 65.5449 5.60156C65.5762 5.71094 65.5957 5.8125 65.6035 5.90625C65.627 6.10156 65.5762 6.30469 65.4512 6.51562C65.3262 6.72656 65.1738 6.95703 64.9941 7.20703C64.8848 7.36328 64.7754 7.53906 64.666 7.73438C64.5566 7.92969 64.5098 8.10547 64.5254 8.26172C64.541 8.36328 64.5684 8.44531 64.6074 8.50781C64.6465 8.57031 64.7559 8.60156 64.9355 8.60156C65.0684 8.60156 65.2129 8.55469 65.3691 8.46094C65.5332 8.35938 65.6973 8.23438 65.8613 8.08594C66.0332 7.92969 66.2012 7.76172 66.3652 7.58203C66.5293 7.39453 66.6816 7.21484 66.8223 7.04297C66.9629 6.86328 67.0801 6.70312 67.1738 6.5625C67.2754 6.42188 67.3496 6.32031 67.3965 6.25781C67.4355 6.19531 67.4863 6.15234 67.5488 6.12891C67.6113 6.10547 67.666 6.10547 67.7129 6.12891C67.7598 6.15234 67.7871 6.19922 67.7949 6.26953C67.8105 6.33984 67.7832 6.43359 67.7129 6.55078C67.666 6.62891 67.584 6.75391 67.4668 6.92578C67.3574 7.09766 67.2207 7.28906 67.0566 7.5C66.9004 7.71094 66.7246 7.92969 66.5293 8.15625C66.334 8.375 66.127 8.57812 65.9082 8.76562C65.6973 8.94531 65.4824 9.09375 65.2637 9.21094C65.0527 9.32812 64.8496 9.38672 64.6543 9.38672C64.4512 9.38672 64.2832 9.34766 64.1504 9.26953C64.0176 9.19141 63.9082 9.09766 63.8223 8.98828C63.7441 8.87109 63.6855 8.74609 63.6465 8.61328C63.6152 8.47266 63.6035 8.34375 63.6113 8.22656C63.6191 8.13281 63.6426 8.03516 63.6816 7.93359C63.7285 7.82422 63.7793 7.71484 63.834 7.60547C63.8965 7.48828 63.959 7.375 64.0215 7.26562C64.0918 7.14844 64.1543 7.03516 64.209 6.92578C64.3418 6.69922 64.4473 6.50781 64.5254 6.35156C64.6113 6.1875 64.6543 6.05078 64.6543 5.94141C64.6543 5.87109 64.6387 5.80859 64.6074 5.75391C64.5762 5.69922 64.5254 5.67188 64.4551 5.67188C64.4082 5.67188 64.373 5.67578 64.3496 5.68359C64.334 5.68359 64.3145 5.68359 64.291 5.68359C64.2754 5.68359 64.248 5.6875 64.209 5.69531C64.1777 5.69531 64.127 5.69531 64.0566 5.69531C63.9551 5.69531 63.8691 5.67969 63.7988 5.64844C63.7285 5.61719 63.6621 5.59375 63.5996 5.57812C63.5684 5.63281 63.498 5.75 63.3887 5.92969C63.2793 6.10938 63.1504 6.32031 63.002 6.5625C62.8613 6.80469 62.709 7.05859 62.5449 7.32422C62.3887 7.58984 62.2402 7.83984 62.0996 8.07422C61.959 8.30078 61.8418 8.49609 61.748 8.66016C61.6465 8.81641 61.584 8.91016 61.5605 8.94141ZM70.3496 7.13672C70.2715 7.43359 70.166 7.71094 70.0332 7.96875C69.9004 8.22656 69.7402 8.44922 69.5527 8.63672C69.373 8.82422 69.166 8.96875 68.9316 9.07031C68.7051 9.17969 68.4551 9.23438 68.1816 9.23438C67.8613 9.23438 67.6074 9.16406 67.4199 9.02344C67.2402 8.89062 67.1035 8.72266 67.0098 8.51953C66.9238 8.31641 66.873 8.09375 66.8574 7.85156C66.834 7.60938 66.8223 7.38281 66.8223 7.17188C66.8223 7.02344 66.8418 6.85938 66.8809 6.67969C66.9121 6.5 66.959 6.31641 67.0215 6.12891C67.084 5.94141 67.1621 5.75391 67.2559 5.56641C67.3574 5.37891 67.4746 5.20703 67.6074 5.05078C67.6543 4.91797 67.7246 4.80078 67.8184 4.69922C67.9199 4.59766 68.0332 4.51562 68.1582 4.45312C68.291 4.38281 68.4316 4.33203 68.5801 4.30078C68.7285 4.26172 68.873 4.24219 69.0137 4.24219C69.0371 4.24219 69.0566 4.24609 69.0723 4.25391C69.0957 4.26172 69.1191 4.26953 69.1426 4.27734C69.2441 4.28516 69.3691 4.32422 69.5176 4.39453C69.6738 4.46484 69.8223 4.57031 69.9629 4.71094C70.1113 4.85156 70.2363 5.03125 70.3379 5.25C70.4395 5.46094 70.4902 5.71875 70.4902 6.02344C70.4902 6.08594 70.4863 6.16406 70.4785 6.25781C70.4707 6.34375 70.4629 6.41797 70.4551 6.48047C70.6348 6.41016 70.8223 6.32422 71.0176 6.22266C71.2129 6.12109 71.4004 6.01562 71.5801 5.90625C71.7676 5.78906 71.9395 5.67188 72.0957 5.55469C72.252 5.4375 72.377 5.33203 72.4707 5.23828C72.5488 5.16797 72.6152 5.12891 72.6699 5.12109C72.7246 5.11328 72.7637 5.12891 72.7871 5.16797C72.8105 5.20703 72.8145 5.26172 72.7988 5.33203C72.7832 5.40234 72.7402 5.48047 72.6699 5.56641C72.6309 5.61328 72.5293 5.70703 72.3652 5.84766C72.209 5.98828 72.0215 6.14062 71.8027 6.30469C71.584 6.46875 71.3457 6.62891 71.0879 6.78516C70.8301 6.94141 70.584 7.05859 70.3496 7.13672ZM68.3691 5.35547C68.3457 5.42578 68.334 5.5 68.334 5.57812C68.334 5.70312 68.3418 5.83594 68.3574 5.97656C68.373 6.10938 68.4121 6.23047 68.4746 6.33984C68.5371 6.44922 68.6348 6.54297 68.7676 6.62109C68.9082 6.69141 69.0996 6.72656 69.3418 6.72656C69.3809 6.72656 69.4199 6.72656 69.459 6.72656C69.498 6.71875 69.5371 6.71094 69.5762 6.70312C69.5996 6.60156 69.6191 6.51172 69.6348 6.43359C69.6582 6.34766 69.6699 6.27344 69.6699 6.21094C69.6855 6.0625 69.6855 5.91016 69.6699 5.75391C69.6543 5.59766 69.623 5.45703 69.5762 5.33203C69.5371 5.19922 69.4824 5.09375 69.4121 5.01562C69.3496 4.92969 69.2715 4.88672 69.1777 4.88672C69.0293 4.88672 68.8848 4.92969 68.7441 5.01562C68.6113 5.09375 68.4863 5.20703 68.3691 5.35547ZM67.6191 7.41797C67.6191 7.55859 67.627 7.69922 67.6426 7.83984C67.6582 7.97266 67.6895 8.09375 67.7363 8.20312C67.7832 8.30469 67.8457 8.39062 67.9238 8.46094C68.002 8.52344 68.1035 8.55469 68.2285 8.55469C68.3691 8.55469 68.498 8.52344 68.6152 8.46094C68.7324 8.39062 68.8379 8.30469 68.9316 8.20312C69.0254 8.09375 69.1074 7.97266 69.1777 7.83984C69.2559 7.69922 69.3223 7.55469 69.377 7.40625C69.3223 7.41406 69.2676 7.42188 69.2129 7.42969C69.166 7.42969 69.1113 7.42969 69.0488 7.42969C68.752 7.42969 68.4941 7.34375 68.2754 7.17188C68.0645 6.99219 67.9004 6.76562 67.7832 6.49219C67.7363 6.65625 67.6973 6.81641 67.666 6.97266C67.6348 7.12891 67.6191 7.27734 67.6191 7.41797Z" fill="white"/>
</svg>
