<svg width="132" height="132" viewBox="0 0 132 132" fill="none" xmlns="http://www.w3.org/2000/svg">
<path d="M23.1429 1H8.85715V116.352H23.1429V58.6761V1Z" fill="white"/>
<path d="M56.7143 1H46L56.7143 33.0423V1Z" fill="white"/>
<path d="M46 116.352H56.7143V83.3944L46 116.352Z" fill="white"/>
<path d="M122.429 1H111.714L122.429 33.0423V1Z" fill="white"/>
<path d="M88.8572 1H74.5714V116.352H88.8572V58.6761V1Z" fill="white"/>
<path d="M111.714 116.352H122.429V83.3944L111.714 116.352Z" fill="white"/>
<path d="M56.7143 116.352H46H23.1429H8.85715H1V131H131V116.352H122.429H111.714H88.8572H74.5714H56.7143Z" fill="white"/>
<path d="M1 1H56.7143M56.7143 1V33.0423L46 1H56.7143ZM8.85715 116.352V1H23.1429V58.6761M8.85715 116.352H23.1429M8.85715 116.352H1M23.1429 116.352V58.6761M23.1429 116.352H1M23.1429 116.352H46M23.1429 58.6761H41M41 58.6761V45.8592M41 58.6761V71.493M1 116.352V131H131V116.352H122.429M46 116.352H56.7143M46 116.352L56.7143 83.3944V116.352M56.7143 116.352H88.8572M56.7143 116.352H74.5714M66.7143 1H122.429M122.429 1V33.0423L111.714 1H122.429ZM74.5714 116.352V1H88.8572V58.6761M74.5714 116.352H88.8572M88.8572 116.352V58.6761M88.8572 116.352H111.714M88.8572 58.6761H106.714M106.714 58.6761V45.8592M106.714 58.6761V71.493M111.714 116.352H122.429M111.714 116.352L122.429 83.3944V116.352" stroke="white" stroke-width="2" stroke-miterlimit="16"/>
</svg>
